<svg height="512pt" viewBox="0 -21 512.02846 512" width="512pt" xmlns="http://www.w3.org/2000/svg"><path d="m256.015625 96.015625-117.335937 213.332031-137.171876-80 128-224 .640626-.851562zm0 0" fill="#4dd0e1"/><path d="m510.519531 229.347656-137.171875 80-117.332031-213.332031 125.867187-91.519531.636719.851562zm0 0" fill="#4dd0e1"/><path d="m373.347656 309.347656h-234.667968l117.335937-213.332031zm0 0" fill="#00bcd4"/><path d="m138.679688 309.347656v160c-3.839844 0-7.464844-2.132812-9.171876-5.332031l-128-224c-1.921874-3.414063-1.921874-7.253906 0-10.667969zm0 0" fill="#26c6da"/><path d="m510.519531 240.015625-128 224c-1.707031 3.199219-5.332031 5.332031-9.171875 5.332031v-160l137.171875-80c1.921875 3.414063 1.921875 7.253906 0 10.667969zm0 0" fill="#26c6da"/><path d="m373.347656 309.347656v160h-234.667968v-160zm0 0" fill="#4dd0e1"/><path d="m381.882812 4.496094-125.867187 91.519531-125.867187-91.519531c1.707031-2.773438 5.117187-4.480469 8.53125-4.480469h234.667968c3.414063 0 6.828125 1.707031 8.535156 4.480469zm0 0" fill="#00acc1"/><path d="m256.015625 384.015625c-3.757813 0-7.402344-1.984375-9.34375-5.527344l-5.144531-9.34375c-2.855469-5.164062-.980469-11.648437 4.183594-14.484375 5.121093-2.839844 11.625-.980468 14.484374 4.203125l5.140626 9.34375c2.859374 5.160157.980468 11.648438-4.179688 14.484375-1.621094.894532-3.394531 1.324219-5.140625 1.324219zm0 0"/><path d="m231.417969 339.277344c-3.753907 0-7.402344-2.003906-9.34375-5.523438l-9.730469-17.707031c-2.835938-5.164063-.9375-11.648437 4.203125-14.484375 5.164063-2.796875 11.628906-.960938 14.507813 4.199219l9.726562 17.707031c2.839844 5.164062.941406 11.648438-4.203125 14.488281-1.664063.894531-3.410156 1.320313-5.160156 1.320313zm-29.183594-53.078125c-3.757813 0-7.402344-1.980469-9.34375-5.523438l-9.75-17.707031c-2.859375-5.164062-.980469-11.648438 4.179687-14.484375 5.097657-2.816406 11.648438-.980469 14.484376 4.203125l9.75 17.707031c2.859374 5.160157.980468 11.644531-4.179688 14.484375-1.621094.894532-3.394531 1.320313-5.140625 1.320313zm-29.226563-53.097657c-3.757812 0-7.402343-2.003906-9.34375-5.523437l-9.730468-17.707031c-2.835938-5.164063-.9375-11.648438 4.203125-14.484375 5.164062-2.816407 11.625-.984375 14.507812 4.199219l9.726563 17.707031c2.835937 5.164062.9375 11.648437-4.203125 14.488281-1.664063.894531-3.414063 1.320312-5.160157 1.320312zm0 0"/><path d="m143.820312 180.023438c-3.753906 0-7.402343-1.984376-9.34375-5.523438l-5.140624-9.34375c-2.835938-5.140625-.960938-11.648438 4.203124-14.484375 5.121094-2.796875 11.648438-.984375 14.484376 4.199219l5.144531 9.347656c2.855469 5.160156.980469 11.644531-4.183594 14.484375-1.640625.894531-3.414063 1.320313-5.164063 1.320313zm0 0"/><path d="m10.679688 245.347656c-3.667969 0-7.230469-1.898437-9.214844-5.289062-2.988282-5.078125-1.257813-11.605469 3.839844-14.59375l9.214843-5.375c5.035157-2.964844 11.605469-1.28125 14.59375 3.839844 2.984375 5.078124 1.257813 11.605468-3.839843 14.589843l-9.214844 5.378907c-1.6875.980468-3.542969 1.449218-5.378906 1.449218zm0 0"/><path d="m453.839844 217.636719c-1.835938 0-3.691406-.46875-5.378906-1.453125l-19.132813-11.15625c-5.078125-2.964844-6.808594-9.492188-3.84375-14.589844 2.96875-5.101562 9.496094-6.808594 14.59375-3.84375l19.136719 11.160156c5.078125 2.964844 6.804687 9.492188 3.839844 14.589844-1.984376 3.394531-5.546876 5.292969-9.214844 5.292969zm-395.648438 0c-3.671875 0-7.234375-1.898438-9.21875-5.292969-2.984375-5.097656-1.257812-11.625 3.839844-14.589844l19.136719-11.160156c5.035156-2.964844 11.605469-1.257812 14.59375 3.84375 2.984375 5.097656 1.257812 11.625-3.839844 14.589844l-19.136719 11.15625c-1.707031.984375-3.5625 1.453125-5.375 1.453125zm338.238282-33.496094c-1.835938 0-3.691407-.46875-5.375-1.449219l-19.136719-11.15625c-5.078125-2.964844-6.804688-9.496094-3.839844-14.59375s9.515625-6.804687 14.59375-3.839844l19.132813 11.15625c5.078124 2.96875 6.808593 9.496094 3.839843 14.59375-1.980469 3.390626-5.546875 5.289063-9.214843 5.289063zm-280.832032 0c-3.667968 0-7.230468-1.898437-9.214844-5.289063-2.988281-5.097656-1.257812-11.625 3.839844-14.59375l19.136719-11.15625c5.054687-2.964843 11.605469-1.28125 14.589844 3.820313 2.988281 5.097656 1.257812 11.625-3.839844 14.613281l-19.136719 11.15625c-1.683594.980469-3.539062 1.449219-5.375 1.449219zm217.984375-13.460937h-22.164062c-5.890625 0-10.667969-4.777344-10.667969-10.664063 0-5.890625 4.757812-10.667969 10.667969-10.667969h22.164062c5.886719 0 10.667969 4.777344 10.667969 10.667969 0 5.886719-4.78125 10.664063-10.667969 10.664063zm-66.472656 0h-22.1875c-5.890625 0-10.667969-4.777344-10.667969-10.664063 0-5.890625 4.777344-10.667969 10.667969-10.667969h22.164063c5.886718 0 10.667968 4.777344 10.667968 10.667969 0 5.886719-4.757812 10.664063-10.644531 10.664063zm-66.496094 0h-22.167969c-5.886718 0-10.664062-4.777344-10.664062-10.664063 0-5.890625 4.777344-10.667969 10.664062-10.667969h22.167969c5.886719 0 10.664063 4.777344 10.664063 10.667969 0 5.886719-4.757813 10.664063-10.664063 10.664063zm0 0"/><path d="m501.347656 245.347656c-1.835937 0-3.691406-.46875-5.375-1.449218l-9.21875-5.378907c-5.074218-2.964843-6.804687-9.492187-3.839844-14.589843 2.96875-5.097657 9.496094-6.804688 14.59375-3.839844l9.214844 5.375c5.078125 2.964844 6.804688 9.492187 3.839844 14.59375-1.984375 3.390625-5.546875 5.289062-9.214844 5.289062zm0 0"/><path d="m138.679688 469.347656c-3.285157 0-6.546876-1.515625-8.617188-4.394531-3.457031-4.757813-2.410156-11.433594 2.347656-14.890625l8.617188-6.273438c4.777344-3.433593 11.414062-2.429687 14.890625 2.347657 3.457031 4.757812 2.410156 11.433593-2.347657 14.890625l-8.617187 6.273437c-1.898437 1.386719-4.074219 2.046875-6.273437 2.046875zm0 0"/><path d="m183.628906 436.644531c-3.285156 0-6.546875-1.515625-8.617187-4.394531-3.457031-4.757812-2.410157-11.4375 2.347656-14.890625l18.175781-13.207031c4.734375-3.433594 11.433594-2.429688 14.890625 2.347656 3.457031 4.757812 2.410157 11.433594-2.347656 14.890625l-18.175781 13.203125c-1.898438 1.386719-4.074219 2.050781-6.273438 2.050781zm54.507813-39.617187c-3.285157 0-6.550781-1.515625-8.617188-4.394532-3.457031-4.777343-2.410156-11.433593 2.34375-14.910156l17.453125-12.714844c3.261719-2.667968 8.019532-3.351562 11.925782-1.175781 5.160156 2.839844 7.125 9.175781 4.265624 14.335938-.746093 1.367187-1.964843 2.859375-3.222656 3.777343l-17.875 13.011719c-1.898437 1.410157-4.074218 2.070313-6.273437 2.070313zm39.679687-52.671875c-1.75 0-3.519531-.425781-5.140625-1.324219-5.164062-2.835938-7.039062-9.320312-4.203125-14.484375l10.835938-19.667969c2.859375-5.183594 9.367187-6.996094 14.507812-4.203125 5.164063 2.835938 7.039063 9.324219 4.203125 14.484375l-10.835937 19.671875c-1.964844 3.539063-5.613282 5.523438-9.367188 5.523438zm32.492188-59.027344c-1.75 0-3.5-.429687-5.140625-1.324219-5.144531-2.835937-7.042969-9.324218-4.203125-14.484375l10.816406-19.671875c2.835938-5.183594 9.34375-7.015625 14.503906-4.203125 5.140625 2.839844 7.042969 9.324219 4.203125 14.488281l-10.816406 19.667969c-1.941406 3.519531-5.609375 5.527344-9.363281 5.527344zm32.445312-59.050781c-1.746094 0-3.519531-.429688-5.140625-1.324219-5.160156-2.835937-7.039062-9.324219-4.203125-14.484375l10.839844-19.671875c2.878906-5.183594 9.386719-7.015625 14.503906-4.203125 5.164063 2.839844 7.042969 9.324219 4.203125 14.488281l-10.835937 19.667969c-1.960938 3.542969-5.609375 5.527344-9.367188 5.527344zm30.59375-59.523438c-5.886718 0-10.667968-4.777344-10.667968-10.664062v-22.445313c0-5.886719 4.78125-10.664062 10.667968-10.664062 5.886719 0 10.667969 4.777343 10.667969 10.664062v22.464844c0 5.890625-4.78125 10.644531-10.667969 10.644531zm0-67.367187c-5.886718 0-10.667968-4.78125-10.667968-10.667969v-22.464844c0-5.886718 4.78125-10.667968 10.667968-10.667968 5.886719 0 10.667969 4.78125 10.667969 10.667968v22.464844c0 5.886719-4.78125 10.667969-10.667969 10.667969zm0 0"/><path d="m373.347656 32.015625c-5.886718 0-10.667968-4.78125-10.667968-10.667969v-10.667968c0-5.886719 4.78125-10.664063 10.667968-10.664063 5.886719 0 10.667969 4.777344 10.667969 10.664063v10.667968c0 5.886719-4.78125 10.667969-10.667969 10.667969zm0 0"/><path d="m138.679688 32.015625c-5.886719 0-10.664063-4.78125-10.664063-10.667969v-10.667968c0-5.886719 4.777344-10.664063 10.664063-10.664063 5.890624 0 10.667968 4.777344 10.667968 10.664063v10.667968c0 5.886719-4.777344 10.667969-10.667968 10.667969zm0 0"/><path d="m138.679688 108.8125c-5.886719 0-10.664063-4.777344-10.664063-10.664062v-25.601563c0-5.886719 4.777344-10.664063 10.664063-10.664063 5.890624 0 10.667968 4.777344 10.667968 10.664063v25.601563c0 5.886718-4.777344 10.664062-10.667968 10.664062zm0 0"/><path d="m138.679688 170.679688c-5.886719 0-10.664063-4.777344-10.664063-10.664063v-10.667969c0-5.886718 4.777344-10.667968 10.664063-10.667968 5.890624 0 10.667968 4.78125 10.667968 10.667968v10.667969c0 5.886719-4.777344 10.664063-10.667968 10.664063zm0 0"/><path d="m264.632812 390.285156c-2.195312 0-4.375-.660156-6.273437-2.046875l-8.617187-6.273437c-4.777344-3.453125-5.800782-10.132813-2.347657-14.890625 3.457031-4.796875 10.15625-5.800781 14.890625-2.34375l8.621094 6.269531c4.777344 3.457031 5.800781 10.132812 2.34375 14.890625-2.066406 2.882813-5.308594 4.394531-8.617188 4.394531zm0 0"/><path d="m324.707031 433.957031c-2.195312 0-4.371093-.664062-6.269531-2.050781l-20.011719-14.570312c-4.78125-3.476563-5.804687-10.132813-2.347656-14.890626 3.457031-4.800781 10.15625-5.78125 14.890625-2.347656l20.011719 14.574219c4.777343 3.476563 5.800781 10.132813 2.347656 14.890625-2.09375 2.878906-5.335937 4.394531-8.621094 4.394531zm0 0"/><path d="m373.347656 469.347656c-2.199218 0-4.375-.660156-6.273437-2.046875l-8.617188-6.273437c-4.777343-3.457032-5.804687-10.132813-2.347656-14.890625 3.476563-4.800781 10.15625-5.78125 14.890625-2.347657l8.621094 6.273438c4.777344 3.457031 5.800781 10.132812 2.34375 14.890625-2.066406 2.878906-5.332032 4.394531-8.617188 4.394531zm0 0"/><path d="m373.347656 469.347656h-234.667968c-3.839844 0-7.359376-2.046875-9.277344-5.375l-128-224c-1.859375-3.285156-1.859375-7.296875 0-10.582031l128-224c1.917968-3.328125 5.4375-5.375 9.277344-5.375h234.667968c3.839844 0 7.359375 2.046875 9.28125 5.375l128 224c1.855469 3.285156 1.855469 7.296875 0 10.582031l-128 224c-1.921875 3.328125-5.441406 5.375-9.28125 5.375zm-228.480468-21.332031h222.292968l121.898438-213.335937-121.898438-213.332032h-222.292968l-121.898438 213.332032zm0 0"/><path d="m138.679688 320.015625c-1.75 0-3.496094-.429687-5.140626-1.324219-5.164062-2.835937-7.039062-9.324218-4.203124-14.484375l117.335937-213.335937c2.878906-5.183594 9.34375-7.015625 14.503906-4.199219 5.164063 2.835937 7.042969 9.320313 4.203125 14.484375l-117.332031 213.332031c-1.964844 3.519531-5.609375 5.527344-9.367187 5.527344zm0 0"/><path d="m373.347656 320.015625h-234.667968c-1.898438 0-3.753907-.492187-5.375-1.453125l-128-74.664062c-5.078126-2.96875-6.804688-9.496094-3.839844-14.59375 2.964844-5.097657 9.492187-6.804688 14.59375-3.839844l125.503906 73.214844h228.90625l125.503906-73.214844c5.054688-2.964844 11.605469-1.257813 14.589844 3.839844 2.988281 5.097656 1.257812 11.625-3.839844 14.59375l-128 74.664062c-1.621094.960938-3.476562 1.453125-5.375 1.453125zm0 0"/><path d="m373.347656 469.347656c-5.886718 0-10.667968-4.777344-10.667968-10.667968v-146.601563l-114.878907-208.851563-115.390625-83.925781c-4.78125-3.457031-5.804687-10.132812-2.347656-14.890625 3.457031-4.800781 10.175781-5.78125 14.890625-2.347656l117.332031 85.332031c1.28125.917969 2.304688 2.113281 3.09375 3.5l117.335938 213.332031c.851562 1.558594 1.300781 3.328126 1.300781 5.121094v149.332032c0 5.890624-4.78125 10.667968-10.667969 10.667968zm0 0"/><path d="m138.679688 469.347656c-5.886719 0-10.664063-4.777344-10.664063-10.667968v-149.332032c0-5.886718 4.777344-10.667968 10.664063-10.667968 5.890624 0 10.667968 4.78125 10.667968 10.667968v149.332032c0 5.890624-4.777344 10.667968-10.667968 10.667968zm0 0"/><path d="m256.015625 106.679688c-3.285156 0-6.550781-1.511719-8.621094-4.394532-3.453125-4.757812-2.410156-11.433594 2.347657-14.890625l117.332031-85.332031c4.757812-3.433594 11.414062-2.433594 14.890625 2.347656 3.457031 4.757813 2.410156 11.433594-2.34375 14.890625l-117.335938 85.332031c-1.898437 1.386719-4.074218 2.046876-6.269531 2.046876zm0 0"/></svg>